<?xml version="1.0" standalone="no"?><svg xmlns="http://www.w3.org/2000/svg" viewBox="0 0 1440 320"><path fill="#0099ff" fill-opacity="1" d="M0,128L26.7,138.7C53.3,149,107,171,160,197.3C213.3,224,267,256,320,256C373.3,256,427,224,480,197.3C533.3,171,587,149,640,154.7C693.3,160,747,192,800,213.3C853.3,235,907,245,960,208C1013.3,171,1067,85,1120,74.7C1173.3,64,1227,128,1280,149.3C1333.3,171,1387,149,1413,138.7L1440,128L1440,320L1413.3,320C1386.7,320,1333,320,1280,320C1226.7,320,1173,320,1120,320C1066.7,320,1013,320,960,320C906.7,320,853,320,800,320C746.7,320,693,320,640,320C586.7,320,533,320,480,320C426.7,320,373,320,320,320C266.7,320,213,320,160,320C106.7,320,53,320,27,320L0,320Z"></path></svg>